<svg xmlns="http://www.w3.org/2000/svg" xml:space="preserve" viewBox="0 0 64 64"><style>.st1{opacity:.2}.st2{fill:#231f20}.st3{fill:#e0995e}.st6{fill:#fff}.st8{fill:#76c2af}</style><g id="Layer_1"><circle cx="31.8" cy="32" r="32" fill="#77b3d4"/><g class="st1"><path d="M52 48c0 1.1-.9 2-2 2H14c-1.1 0-2-.9-2-2s.9-2 2-2h36c1.1 0 2 .9 2 2z" class="st2"/></g><path d="M52 46c0 1.1-.9 2-2 2H14c-1.1 0-2-.9-2-2s.9-2 2-2h36c1.1 0 2 .9 2 2z" class="st3"/><path fill="#c75c5c" d="M23 20h-4c-1.7 0-3 1.3-3 3v21h10V23c0-1.7-1.3-3-3-3z"/><path fill="#e0e0d1" d="M45 16h-4c-1.7 0-3 1.3-3 3v25h10V19c0-1.7-1.3-3-3-3z"/><path d="M16 24h10v3H16zM16 37h10v3H16z" class="st3"/><path d="M38 37h10v3H38zM38 20h10v3H38z" class="st6"/><g class="st1"><path d="M40 40V16.2c-1.2.4-2 1.5-2 2.8v25h2v-4z" class="st2"/></g><g class="st1"><path d="M26 40V23c0-1.3-.8-2.4-2-2.8V44h2v-4z" class="st2"/></g><path fill="#4f5d73" d="M35 12h-6c-1.7 0-3 1.3-3 3v29h12V15c0-1.7-1.3-3-3-3z"/><path d="M26 16h12v3H26zM26 37h12v3H26z" class="st8"/></g></svg>