<svg xmlns="http://www.w3.org/2000/svg" xml:space="preserve" viewBox="0 0 64 64"><style>.st1{opacity:.2}.st2{fill:#231f20}.st5{fill:#e0995e}</style><g id="Layer_1"><circle cx="31.8" cy="32" r="32" fill="#76c2af"/><g class="st1"><path d="M28 23v-9H15c-1.7 0-3 1.3-3 3v34c0 1.7 1.3 3 3 3h22c1.7 0 3-1.3 3-3V26h-9c-1.7 0-3-1.3-3-3z" class="st2"/></g><path fill="#e0e0d1" d="M37 12H15c-1.7 0-3 1.3-3 3v34c0 1.7 1.3 3 3 3h22c1.7 0 3-1.3 3-3V15c0-1.7-1.3-3-3-3z"/><g class="st1"><path d="M16 19h10v2H16z" class="st2"/></g><g class="st1"><path d="M16 35h20v2H16z" class="st2"/></g><g class="st1"><path d="M16 30h20v2H16z" class="st2"/></g><g class="st1"><path d="M16 25h20v2H16z" class="st2"/></g><g class="st1"><path d="M16 40h20v2H16z" class="st2"/></g><g class="st1"><path d="M16 45h20v2H16z" class="st2"/></g><g class="st1"><path d="M55.1 21.9 48 14.8c-1.2-1.2-3.1-1.2-4.2 0l-3.5 3.5-.7.7-16.3 16.3-1.9 9.4-.9 4.7 4.7-.9 9.4-1.9 16.3-16.3.7-.7 3.5-3.5c1.2-1.2 1.2-3.1 0-4.2z" class="st2"/></g><path fill="#c75c5c" d="M50.9 28.4c-1.2 1.2-3.1 1.2-4.2 0l-7.1-7.1c-1.2-1.2-1.2-3.1 0-4.2l4.2-4.2c1.2-1.2 3.1-1.2 4.2 0l7.1 7.1c1.2 1.2 1.2 3.1 0 4.2l-4.2 4.2z"/><path d="m40.28099 16.40345 2.8284 2.8284-16.9704 16.9704-2.8284-2.8284z" class="st5"/><path fill="#f5cf87" d="m43.04874 19.2423 5.6568 5.6568-18.3846 18.3846-5.6568-5.6568z"/><path d="m48.76619 24.90945 2.8284 2.8284-16.9704 16.9704-2.8284-2.8284z" class="st5"/><path fill="#4f5d73" d="m20.5 47.5 4.7-.9-3.8-3.8z"/><path fill="#fff" d="m23.3 33.4-1.9 9.4 3.8 3.8 9.4-1.9-1.4-1.4v-2.8h-5.7v-5.7h-2.8z"/></g></svg>