<svg xmlns="http://www.w3.org/2000/svg" xml:space="preserve" viewBox="0 0 64 64"><style>.st1{fill:#f5cf87}.st2{opacity:.2}.st3{fill:#231f20}</style><g id="Layer_1"><circle cx="31.8" cy="32" r="32" fill="#4f5d73"/><path d="M24 16h6v14h-6zM24 34h6v14h-6zM34 16h6v14h-6zM34 34h6v14h-6z" class="st1"/><g class="st2"><path d="M40 14H24c-2.2 0-4 1.8-4 4v32c0 2.2 1.8 4 4 4h16c2.2 0 4-1.8 4-4V18c0-2.2-1.8-4-4-4zM30 50h-6V36h6v14zm0-18h-6V18h6v14zm10 18h-6V36h6v14zm0-18h-6V18h6v14z" class="st3"/></g><path fill="#e0995e" d="M40 12H24c-2.2 0-4 1.8-4 4v32c0 2.2 1.8 4 4 4h16c2.2 0 4-1.8 4-4V16c0-2.2-1.8-4-4-4zM30 48h-6V34h6v14zm0-18h-6V16h6v14zm10 18h-6V34h6v14zm0-18h-6V16h6v14z"/><g class="st2"><circle cx="40" cy="34" r="3" class="st3"/></g><circle cx="40" cy="32" r="3" class="st1"/></g></svg>