<svg xmlns="http://www.w3.org/2000/svg" xml:space="preserve" viewBox="0 0 64 64"><circle cx="32" cy="32" r="32" fill="#c75c5c"/><path fill="#231f20" d="M52.9 28.1c-.3-1-1.1-1.6-2.1-1.8l-11.3-1.6-5.1-10.3c-.4-.9-1.4-1.5-2.4-1.5s-1.9.6-2.4 1.5l-5.1 10.3-11.3 1.6c-1 .1-1.8.8-2.1 1.8-.3 1-.1 2 .7 2.7l8.2 8L18.1 50c-.2 1 .2 2 1 2.6.5.3 1 .5 1.5.5.4 0 .8-.1 1.2-.3L32 47.5l10.1 5.3c.4.2.8.3 1.2.3.5 0 1.1-.2 1.5-.5.8-.6 1.2-1.6 1-2.6L44 38.7l8.2-8c.7-.6 1-1.7.7-2.6z" opacity=".2"/><path fill="#f5cf87" d="M52.9 26.1c-.3-1-1.1-1.6-2.1-1.8l-11.3-1.6-5.1-10.3c-.4-.9-1.4-1.5-2.4-1.5s-1.9.6-2.4 1.5l-5.1 10.3-11.3 1.6c-1 .1-1.8.8-2.1 1.8-.3 1-.1 2 .7 2.7l8.2 8L18.1 48c-.2 1 .2 2 1 2.6.5.3 1 .5 1.5.5.4 0 .8-.1 1.2-.3L32 45.5l10.1 5.3c.4.2.8.3 1.2.3.5 0 1.1-.2 1.5-.5.8-.6 1.2-1.6 1-2.6L44 36.7l8.2-8c.7-.6 1-1.7.7-2.6z"/></svg>