<svg xmlns="http://www.w3.org/2000/svg" xml:space="preserve" viewBox="0 0 64 64"><style>.st1{opacity:.2}.st2{fill:#231f20}.st3{fill:#e0995e}</style><g id="Layer_1"><circle cx="32" cy="32" r="32" fill="#e0e0d1"/><g class="st1"><path d="M49 26H15c-1.7 0-3 1.3-3 3l4 18c0 1.7 1.3 3 3 3h26c1.7 0 3-1.3 3-3l4-18c0-1.7-1.3-3-3-3zM24 45c0 1.1-.9 2-2 2s-2-.9-2-2v-6c0-1.1.9-2 2-2s2 .9 2 2v6zm10 0c0 1.1-.9 2-2 2s-2-.9-2-2v-6c0-1.1.9-2 2-2s2 .9 2 2v6zm10 0c0 1.1-.9 2-2 2s-2-.9-2-2v-6c0-1.1.9-2 2-2s2 .9 2 2v6z" class="st2"/></g><path d="M49 24H15c-1.7 0-3 1.3-3 3l4 18c0 1.7 1.3 3 3 3h26c1.7 0 3-1.3 3-3l4-18c0-1.7-1.3-3-3-3zM24 43c0 1.1-.9 2-2 2s-2-.9-2-2v-6c0-1.1.9-2 2-2s2 .9 2 2v6zm10 0c0 1.1-.9 2-2 2s-2-.9-2-2v-6c0-1.1.9-2 2-2s2 .9 2 2v6zm10 0c0 1.1-.9 2-2 2s-2-.9-2-2v-6c0-1.1.9-2 2-2s2 .9 2 2v6z" class="st3"/><g class="st1"><path d="M56 28c0 1.1-.9 2-2 2H10c-1.1 0-2-.9-2-2s.9-2 2-2h44c1.1 0 2 .9 2 2z" class="st2"/></g><path d="M56 26c0 1.1-.9 2-2 2H10c-1.1 0-2-.9-2-2s.9-2 2-2h44c1.1 0 2 .9 2 2z" class="st3"/><g class="st1"><path d="M42.8 15.2c.8.8.8 2 0 2.8L31.4 33.4c-.8.8-2 .8-2.8 0-.8-.8-.8-2 0-2.8L40 15.2c.8-.8 2-.8 2.8 0z" class="st2"/></g><path fill="#4f5d73" d="M42.8 13.2c.8.8.8 2 0 2.8L31.4 31.4c-.8.8-2 .8-2.8 0-.8-.8-.8-2 0-2.8L40 13.2c.8-.8 2-.8 2.8 0z"/></g></svg>