<svg xmlns="http://www.w3.org/2000/svg" xml:space="preserve" viewBox="0 0 64 64"><style>.st1{opacity:.2}.st2{fill:#231f20}.st3{fill:#e0995e}</style><g id="Layer_1"><circle cx="32" cy="32" r="32" fill="#4f5d73"/><g class="st1"><path d="M52 45c0 2.2-1.8 4-4 4H16c-2.2 0-4-1.8-4-4V25c0-2.2 1.8-4 4-4h32c2.2 0 4 1.8 4 4v20z" class="st2"/></g><path d="M38 16v20H26V16h12m0-4H26c-2.2 0-4 1.8-4 4v20c0 2.2 1.8 4 4 4h12c2.2 0 4-1.8 4-4V16c0-2.2-1.8-4-4-4z" class="st3"/><path d="M12 28v15c0 2.2 1.8 4 4 4h32c2.2 0 4-1.8 4-4V28H12z" class="st3"/><g class="st1"><path d="M52 25c0-2.2-1.8-4-4-4H16c-2.2 0-4 1.8-4 4v5h40v-5z" class="st2"/></g><g class="st1"><path d="M40 32c0 2.2-1.8 4-4 4h-8c-2.2 0-4-1.8-4-4v-3c0-2.2 1.8-4 4-4h8c2.2 0 4 1.8 4 4v3z" class="st2"/></g><path fill="#f5cf87" d="M36 27v3h-8v-3h8m0-4h-8c-2.2 0-4 1.8-4 4v3c0 2.2 1.8 4 4 4h8c2.2 0 4-1.8 4-4v-3c0-2.2-1.8-4-4-4z"/><path d="M52 23c0-2.2-1.8-4-4-4H16c-2.2 0-4 1.8-4 4v5h40v-5z" class="st3"/></g></svg>