<svg xmlns="http://www.w3.org/2000/svg" xml:space="preserve" viewBox="0 0 64 64"><style>.st1{opacity:.2}.st2{fill:#231f20}.st5{fill:#e0e0d1}</style><g id="Layer_1"><circle cx="32" cy="32" r="32" fill="#77b3d4"/><g class="st1"><path d="M48 14H16c-2.2 0-4 1.8-4 4v32c0 2.2 1.8 4 4 4h32c2.2 0 4-1.8 4-4V18c0-2.2-1.8-4-4-4z" class="st2"/></g><path fill="#e0995e" d="M48 12H16c-2.2 0-4 1.8-4 4v32c0 2.2 1.8 4 4 4h32c2.2 0 4-1.8 4-4V16c0-2.2-1.8-4-4-4z"/><g class="st1"><path d="M16 18h32v32H16z" class="st2"/></g><path fill="#fff" d="M16 16h32v32H16z"/><path d="M22 24h20v2H22zM22 28h20v2H22zM22 32h20v2H22zM22 36h20v2H22zM22 40h20v2H22z" class="st5"/><g class="st1"><path d="M37 12H24v5c0 1.7 1.3 3 3 3h10c1.7 0 3-1.3 3-3v-5h-3z" class="st2"/></g><path fill="#4f5d73" d="M37 10H24v5c0 1.7 1.3 3 3 3h10c1.7 0 3-1.3 3-3v-5h-3z"/></g></svg>