<svg xmlns="http://www.w3.org/2000/svg" xml:space="preserve" viewBox="0 0 64 64"><circle cx="32" cy="32" r="32" fill="#76c2af"/><path fill="#231f20" d="m48 42.4-3-9.5c-.2-.5-.7-.8-1.3-.7L34.9 35l7.1-4.4c.5-.3.6-.9.3-1.4l-6.9-11c-.3-.5-.9-.6-1.4-.3l-8.7 5.5-1.4-4.4c-.7-2.1-3-4.8-6.9-3.6-.8.2-1.2 1.1-1 1.9.2.8 1.1 1.2 1.9 1 2.2-.7 2.9 1.1 3.1 1.6l8 25.5c-2 1.3-3 3.8-2.2 6.2.7 2.3 2.8 3.9 5.2 3.9.6 0 1.1-.1 1.6-.3 1.4-.4 2.5-1.4 3.2-2.7.4-.8.6-1.8.6-2.7l8.3-2.6c.8-.2 1.2-1.1 1-1.9-.2-.8-1.1-1.2-1.9-1L36.6 47l10.7-3.3c.3-.1.5-.3.6-.5s.1-.6.1-.8zm-17.6-6c-.3.1-.5.3-.6.5s-.1.5-.1.8l2.2 6.9L27.3 30l3.8 6.1-.7.3z" opacity=".2"/><path fill="#f5cf87" stroke="#f5cf87" stroke-linecap="round" stroke-linejoin="round" stroke-miterlimit="10" stroke-width="2" d="M32 32.6h0l9.4-5.9h0l-6.9-11h0l-9.4 5.8h0z"/><path fill="none" stroke="#fff" stroke-linecap="round" stroke-linejoin="round" stroke-miterlimit="10" stroke-width="3" d="M45.4 42.8 32 47l-9.5-30.5s-1.2-3.8-5-2.6"/><path fill="#e0995e" stroke="#e0995e" stroke-linecap="round" stroke-linejoin="round" stroke-miterlimit="10" stroke-width="2" d="M33.6 43.9h0L47 39.7h0l-3-9.6h0l-13.3 4.2h0z"/><circle cx="32" cy="47" r="4" fill="#f5cf87" stroke="#4f5d73" stroke-linecap="round" stroke-linejoin="round" stroke-miterlimit="10" stroke-width="3"/></svg>