<svg xmlns="http://www.w3.org/2000/svg" xml:space="preserve" viewBox="0 0 64 64"><style>.st2{fill:#231f20}</style><g id="Layer_1"><circle cx="32" cy="32" r="32" fill="#4f5d73"/><g opacity=".2"><path d="M18 28h-4c-2.2 0-4 1.8-4 4v13c0 2.2 1.8 4 4 4h8V32c0-2.2-1.8-4-4-4zM34 13h-4c-2.2 0-4 1.8-4 4v32h12V17c0-2.2-1.8-4-4-4zM50 33h-4c-2.2 0-4 1.8-4 4v12h8c2.2 0 4-1.8 4-4v-8c0-2.2-1.8-4-4-4z" class="st2"/></g><path fill="#e0e0d1" d="M18 26h-4c-2.2 0-4 1.8-4 4v13c0 2.2 1.8 4 4 4h8V30c0-2.2-1.8-4-4-4z"/><path fill="#76c2af" d="M34 11h-4c-2.2 0-4 1.8-4 4v32h12V15c0-2.2-1.8-4-4-4z"/><path fill="#fff" d="M50 31h-4c-2.2 0-4 1.8-4 4v12h8c2.2 0 4-1.8 4-4v-8c0-2.2-1.8-4-4-4z"/></g></svg>